<?xml version="1.0" encoding="UTF-8" standalone="no"?>
<!DOCTYPE svg PUBLIC "-//W3C//DTD SVG 1.1//EN"
 "http://www.w3.org/Graphics/SVG/1.1/DTD/svg11.dtd">
<!-- Generated by graphviz version 2.40.1 (20161225.0304)
 -->
<!-- Title: dependencies Pages: 1 -->
<svg width="815pt" height="211pt"
 viewBox="0.00 0.00 815.00 211.00" xmlns="http://www.w3.org/2000/svg" xmlns:xlink="http://www.w3.org/1999/xlink">
<g id="graph0" class="graph" transform="scale(1 1) rotate(0) translate(4 207)">
<title>dependencies</title>
<polygon fill="#ffffff" stroke="transparent" points="-4,4 -4,-207 811,-207 811,4 -4,4"/>
<text text-anchor="start" x="382.5091" y="-42.4" font-family="sans-serif" font-weight="bold" font-size="14.00" fill="#000000">Legend</text>
<polygon fill="#ffffb3" stroke="transparent" points="169.5,-10 169.5,-30 189.5,-30 189.5,-10 169.5,-10"/>
<text text-anchor="start" x="193.129" y="-15.4" font-family="sans-serif" font-size="14.00" fill="#000000"> &#160;Declarations</text>
<polygon fill="#8dd3c7" stroke="transparent" points="282.5,-10 282.5,-30 302.5,-30 302.5,-10 282.5,-10"/>
<text text-anchor="start" x="306.2251" y="-15.4" font-family="sans-serif" font-size="14.00" fill="#000000"> &#160;Module</text>
<polygon fill="#80b1d3" stroke="transparent" points="368.5,-10 368.5,-30 388.5,-30 388.5,-10 368.5,-10"/>
<text text-anchor="start" x="392.2812" y="-15.4" font-family="sans-serif" font-size="14.00" fill="#000000"> &#160;Bootstrap</text>
<polygon fill="#fdb462" stroke="transparent" points="465.5,-10 465.5,-30 485.5,-30 485.5,-10 465.5,-10"/>
<text text-anchor="start" x="489.1732" y="-15.4" font-family="sans-serif" font-size="14.00" fill="#000000"> &#160;Providers</text>
<polygon fill="#fb8072" stroke="transparent" points="561.5,-10 561.5,-30 581.5,-30 581.5,-10 561.5,-10"/>
<text text-anchor="start" x="585.2258" y="-15.4" font-family="sans-serif" font-size="14.00" fill="#000000"> &#160;Exports</text>
<g id="clust1" class="cluster">
<title>cluster_AuthModule</title>
<polygon fill="none" stroke="#000000" stroke-dasharray="1,5" points="8,-70 8,-195 799,-195 799,-70 8,-70"/>
</g>
<g id="clust2" class="cluster">
<title>cluster_AuthModule_declarations</title>
<polygon fill="none" stroke="#000000" points="390,-78 390,-130 791,-130 791,-78 390,-78"/>
</g>
<g id="clust6" class="cluster">
<title>cluster_AuthModule_imports</title>
<polygon fill="none" stroke="#000000" points="234,-78 234,-130 382,-130 382,-78 234,-78"/>
</g>
<g id="clust9" class="cluster">
<title>cluster_AuthModule_providers</title>
<polygon fill="none" stroke="#000000" points="16,-78 16,-130 226,-130 226,-78 16,-78"/>
</g>
<!-- LoginComponent -->
<g id="node1" class="node">
<title>LoginComponent</title>
<polygon fill="#ffffb3" stroke="#000000" points="783.2758,-122 668.7242,-122 668.7242,-86 783.2758,-86 783.2758,-122"/>
<text text-anchor="middle" x="726" y="-99.8" font-family="Times,serif" font-size="14.00" fill="#000000">LoginComponent</text>
</g>
<!-- AuthModule -->
<g id="node4" class="node">
<title>AuthModule</title>
<polygon fill="#8dd3c7" stroke="#000000" points="495.5482,-187 492.5482,-191 471.5482,-191 468.5482,-187 408.4518,-187 408.4518,-151 495.5482,-151 495.5482,-187"/>
<text text-anchor="middle" x="452" y="-164.8" font-family="Times,serif" font-size="14.00" fill="#000000">AuthModule</text>
</g>
<!-- LoginComponent&#45;&gt;AuthModule -->
<g id="edge1" class="edge">
<title>LoginComponent&#45;&gt;AuthModule</title>
<path fill="none" stroke="#000000" d="M726,-122.2843C726,-143.3211 726,-175 726,-175 726,-175 505.7191,-175 505.7191,-175"/>
<polygon fill="#000000" stroke="#000000" points="505.7191,-171.5001 495.7191,-175 505.7191,-178.5001 505.7191,-171.5001"/>
</g>
<!-- RegisterComponent -->
<g id="node2" class="node">
<title>RegisterComponent</title>
<polygon fill="#ffffb3" stroke="#000000" points="650.9846,-122 523.0154,-122 523.0154,-86 650.9846,-86 650.9846,-122"/>
<text text-anchor="middle" x="587" y="-99.8" font-family="Times,serif" font-size="14.00" fill="#000000">RegisterComponent</text>
</g>
<!-- RegisterComponent&#45;&gt;AuthModule -->
<g id="edge2" class="edge">
<title>RegisterComponent&#45;&gt;AuthModule</title>
<path fill="none" stroke="#000000" d="M587,-122.0225C587,-139.3734 587,-163 587,-163 587,-163 505.8306,-163 505.8306,-163"/>
<polygon fill="#000000" stroke="#000000" points="505.8307,-159.5001 495.8306,-163 505.8306,-166.5001 505.8307,-159.5001"/>
</g>
<!-- SignComponent -->
<g id="node3" class="node">
<title>SignComponent</title>
<polygon fill="#ffffb3" stroke="#000000" points="505.5056,-122 398.4944,-122 398.4944,-86 505.5056,-86 505.5056,-122"/>
<text text-anchor="middle" x="452" y="-99.8" font-family="Times,serif" font-size="14.00" fill="#000000">SignComponent</text>
</g>
<!-- SignComponent&#45;&gt;AuthModule -->
<g id="edge3" class="edge">
<title>SignComponent&#45;&gt;AuthModule</title>
<path fill="none" stroke="#000000" d="M452,-122.1061C452,-122.1061 452,-140.991 452,-140.991"/>
<polygon fill="#000000" stroke="#000000" points="448.5001,-140.9909 452,-150.991 455.5001,-140.991 448.5001,-140.9909"/>
</g>
<!-- AuthRoutingModule -->
<g id="node5" class="node">
<title>AuthRoutingModule</title>
<polygon fill="#8dd3c7" stroke="#000000" points="374.1652,-122 371.1652,-126 350.1652,-126 347.1652,-122 241.8348,-122 241.8348,-86 374.1652,-86 374.1652,-122"/>
<text text-anchor="middle" x="308" y="-99.8" font-family="Times,serif" font-size="14.00" fill="#000000">AuthRoutingModule</text>
</g>
<!-- AuthRoutingModule&#45;&gt;AuthModule -->
<g id="edge4" class="edge">
<title>AuthRoutingModule&#45;&gt;AuthModule</title>
<path fill="none" stroke="#000000" d="M308,-122.0225C308,-139.3734 308,-163 308,-163 308,-163 398.4045,-163 398.4045,-163"/>
<polygon fill="#000000" stroke="#000000" points="398.4045,-166.5001 408.4045,-163 398.4044,-159.5001 398.4045,-166.5001"/>
</g>
<!-- AuthenticationService -->
<g id="node6" class="node">
<title>AuthenticationService</title>
<ellipse fill="#fdb462" stroke="#000000" cx="121" cy="-104" rx="97.2683" ry="18"/>
<text text-anchor="middle" x="121" y="-99.8" font-family="Times,serif" font-size="14.00" fill="#000000">AuthenticationService</text>
</g>
<!-- AuthenticationService&#45;&gt;AuthModule -->
<g id="edge5" class="edge">
<title>AuthenticationService&#45;&gt;AuthModule</title>
<path fill="none" stroke="#000000" d="M121,-122.2843C121,-143.3211 121,-175 121,-175 121,-175 398.3872,-175 398.3872,-175"/>
<polygon fill="#000000" stroke="#000000" points="398.3872,-178.5001 408.3872,-175 398.3871,-171.5001 398.3872,-178.5001"/>
</g>
</g>
</svg>
