<?xml version="1.0" encoding="UTF-8" standalone="no"?>
<!DOCTYPE svg PUBLIC "-//W3C//DTD SVG 1.1//EN"
 "http://www.w3.org/Graphics/SVG/1.1/DTD/svg11.dtd">
<!-- Generated by graphviz version 2.40.1 (20161225.0304)
 -->
<!-- Title: dependencies Pages: 1 -->
<svg width="1993pt" height="360pt"
 viewBox="0.00 0.00 1993.00 360.00" xmlns="http://www.w3.org/2000/svg" xmlns:xlink="http://www.w3.org/1999/xlink">
<g id="graph0" class="graph" transform="scale(1 1) rotate(0) translate(4 356)">
<title>dependencies</title>
<polygon fill="#ffffff" stroke="transparent" points="-4,4 -4,-356 1989,-356 1989,4 -4,4"/>
<text text-anchor="start" x="971.5091" y="-42.4" font-family="sans-serif" font-weight="bold" font-size="14.00" fill="#000000">Legend</text>
<polygon fill="#ffffb3" stroke="transparent" points="758.5,-10 758.5,-30 778.5,-30 778.5,-10 758.5,-10"/>
<text text-anchor="start" x="782.129" y="-15.4" font-family="sans-serif" font-size="14.00" fill="#000000"> &#160;Declarations</text>
<polygon fill="#8dd3c7" stroke="transparent" points="871.5,-10 871.5,-30 891.5,-30 891.5,-10 871.5,-10"/>
<text text-anchor="start" x="895.2251" y="-15.4" font-family="sans-serif" font-size="14.00" fill="#000000"> &#160;Module</text>
<polygon fill="#80b1d3" stroke="transparent" points="957.5,-10 957.5,-30 977.5,-30 977.5,-10 957.5,-10"/>
<text text-anchor="start" x="981.2812" y="-15.4" font-family="sans-serif" font-size="14.00" fill="#000000"> &#160;Bootstrap</text>
<polygon fill="#fdb462" stroke="transparent" points="1054.5,-10 1054.5,-30 1074.5,-30 1074.5,-10 1054.5,-10"/>
<text text-anchor="start" x="1078.1732" y="-15.4" font-family="sans-serif" font-size="14.00" fill="#000000"> &#160;Providers</text>
<polygon fill="#fb8072" stroke="transparent" points="1150.5,-10 1150.5,-30 1170.5,-30 1170.5,-10 1150.5,-10"/>
<text text-anchor="start" x="1174.2258" y="-15.4" font-family="sans-serif" font-size="14.00" fill="#000000"> &#160;Exports</text>
<g id="clust1" class="cluster">
<title>cluster_AppModule</title>
<polygon fill="none" stroke="#000000" stroke-dasharray="1,5" points="8,-146 8,-344 1977,-344 1977,-146 8,-146"/>
</g>
<g id="clust2" class="cluster">
<title>cluster_AppModule_declarations</title>
<polygon fill="none" stroke="#000000" points="579,-154 579,-206 1969,-206 1969,-154 579,-154"/>
</g>
<g id="clust13" class="cluster">
<title>cluster_AppModule_imports</title>
<polygon fill="none" stroke="#000000" points="467,-154 467,-206 571,-206 571,-154 467,-154"/>
</g>
<g id="clust15" class="cluster">
<title>cluster_AppModule_bootstrap</title>
<polygon fill="none" stroke="#000000" points="917,-284 917,-336 1041,-336 1041,-284 917,-284"/>
</g>
<g id="clust16" class="cluster">
<title>cluster_AppModule_providers</title>
<polygon fill="none" stroke="#000000" points="16,-154 16,-206 459,-206 459,-154 16,-154"/>
</g>
<g id="clust17" class="cluster">
<title>cluster_AuthModule</title>
<polygon fill="none" stroke="#000000" stroke-dasharray="1,5" points="75,-70 75,-138 866,-138 866,-70 75,-70"/>
</g>
<g id="clust18" class="cluster">
<title>cluster_AuthModule_declarations</title>
<polygon fill="none" stroke="#000000" points="457,-78 457,-130 858,-130 858,-78 457,-78"/>
</g>
<g id="clust22" class="cluster">
<title>cluster_AuthModule_imports</title>
<polygon fill="none" stroke="#000000" points="301,-78 301,-130 449,-130 449,-78 301,-78"/>
</g>
<g id="clust25" class="cluster">
<title>cluster_AuthModule_providers</title>
<polygon fill="none" stroke="#000000" points="83,-78 83,-130 293,-130 293,-78 83,-78"/>
</g>
<!-- AnswersComponent -->
<g id="node1" class="node">
<title>AnswersComponent</title>
<polygon fill="#ffffb3" stroke="#000000" points="1961.3104,-198 1830.6896,-198 1830.6896,-162 1961.3104,-162 1961.3104,-198"/>
<text text-anchor="middle" x="1896" y="-175.8" font-family="Times,serif" font-size="14.00" fill="#000000">AnswersComponent</text>
</g>
<!-- AppModule -->
<g id="node11" class="node">
<title>AppModule</title>
<polygon fill="#8dd3c7" stroke="#000000" points="1020.6571,-263 1017.6571,-267 996.6571,-267 993.6571,-263 937.3429,-263 937.3429,-227 1020.6571,-227 1020.6571,-263"/>
<text text-anchor="middle" x="979" y="-240.8" font-family="Times,serif" font-size="14.00" fill="#000000">AppModule</text>
</g>
<!-- AnswersComponent&#45;&gt;AppModule -->
<g id="edge1" class="edge">
<title>AnswersComponent&#45;&gt;AppModule</title>
<path fill="none" stroke="#000000" d="M1896,-198.0908C1896,-221.1328 1896,-258 1896,-258 1896,-258 1030.7844,-258 1030.7844,-258"/>
<polygon fill="#000000" stroke="#000000" points="1030.7845,-254.5001 1020.7844,-258 1030.7844,-261.5001 1030.7845,-254.5001"/>
</g>
<!-- AppComponent -->
<g id="node2" class="node">
<title>AppComponent</title>
<polygon fill="#ffffb3" stroke="#000000" points="1812.9399,-198 1707.0601,-198 1707.0601,-162 1812.9399,-162 1812.9399,-198"/>
<text text-anchor="middle" x="1760" y="-175.8" font-family="Times,serif" font-size="14.00" fill="#000000">AppComponent</text>
</g>
<!-- AppComponent&#45;&gt;AppModule -->
<g id="edge2" class="edge">
<title>AppComponent&#45;&gt;AppModule</title>
<path fill="none" stroke="#000000" d="M1760,-198.0449C1760,-219.6623 1760,-253 1760,-253 1760,-253 1030.7138,-253 1030.7138,-253"/>
<polygon fill="#000000" stroke="#000000" points="1030.7139,-249.5001 1020.7138,-253 1030.7138,-256.5001 1030.7139,-249.5001"/>
</g>
<!-- DashboardComponent -->
<g id="node3" class="node">
<title>DashboardComponent</title>
<polygon fill="#ffffb3" stroke="#000000" points="1688.9734,-198 1547.0266,-198 1547.0266,-162 1688.9734,-162 1688.9734,-198"/>
<text text-anchor="middle" x="1618" y="-175.8" font-family="Times,serif" font-size="14.00" fill="#000000">DashboardComponent</text>
</g>
<!-- DashboardComponent&#45;&gt;AppModule -->
<g id="edge3" class="edge">
<title>DashboardComponent&#45;&gt;AppModule</title>
<path fill="none" stroke="#000000" d="M1618,-198.2228C1618,-218.3652 1618,-248 1618,-248 1618,-248 1030.9266,-248 1030.9266,-248"/>
<polygon fill="#000000" stroke="#000000" points="1030.9266,-244.5001 1020.9266,-248 1030.9265,-251.5001 1030.9266,-244.5001"/>
</g>
<!-- DiscoverComponent -->
<g id="node4" class="node">
<title>DiscoverComponent</title>
<polygon fill="#ffffb3" stroke="#000000" points="1528.8641,-198 1397.1359,-198 1397.1359,-162 1528.8641,-162 1528.8641,-198"/>
<text text-anchor="middle" x="1463" y="-175.8" font-family="Times,serif" font-size="14.00" fill="#000000">DiscoverComponent</text>
</g>
<!-- DiscoverComponent&#45;&gt;AppModule -->
<g id="edge4" class="edge">
<title>DiscoverComponent&#45;&gt;AppModule</title>
<path fill="none" stroke="#000000" d="M1463,-198.2222C1463,-216.8285 1463,-243 1463,-243 1463,-243 1030.6845,-243 1030.6845,-243"/>
<polygon fill="#000000" stroke="#000000" points="1030.6845,-239.5001 1020.6845,-243 1030.6844,-246.5001 1030.6845,-239.5001"/>
</g>
<!-- FooterComponent -->
<g id="node5" class="node">
<title>FooterComponent</title>
<polygon fill="#ffffb3" stroke="#000000" points="1378.8809,-198 1261.1191,-198 1261.1191,-162 1378.8809,-162 1378.8809,-198"/>
<text text-anchor="middle" x="1320" y="-175.8" font-family="Times,serif" font-size="14.00" fill="#000000">FooterComponent</text>
</g>
<!-- FooterComponent&#45;&gt;AppModule -->
<g id="edge5" class="edge">
<title>FooterComponent&#45;&gt;AppModule</title>
<path fill="none" stroke="#000000" d="M1320,-198.0336C1320,-215.0597 1320,-238 1320,-238 1320,-238 1030.8133,-238 1030.8133,-238"/>
<polygon fill="#000000" stroke="#000000" points="1030.8133,-234.5001 1020.8133,-238 1030.8133,-241.5001 1030.8133,-234.5001"/>
</g>
<!-- HomeComponent -->
<g id="node6" class="node">
<title>HomeComponent</title>
<polygon fill="#ffffb3" stroke="#000000" points="1242.5451,-198 1127.4549,-198 1127.4549,-162 1242.5451,-162 1242.5451,-198"/>
<text text-anchor="middle" x="1185" y="-175.8" font-family="Times,serif" font-size="14.00" fill="#000000">HomeComponent</text>
</g>
<!-- HomeComponent&#45;&gt;AppModule -->
<g id="edge6" class="edge">
<title>HomeComponent&#45;&gt;AppModule</title>
<path fill="none" stroke="#000000" d="M1185,-198.2396C1185,-213.5706 1185,-233 1185,-233 1185,-233 1030.6872,-233 1030.6872,-233"/>
<polygon fill="#000000" stroke="#000000" points="1030.6872,-229.5001 1020.6872,-233 1030.6871,-236.5001 1030.6872,-229.5001"/>
</g>
<!-- NavbarComponent -->
<g id="node7" class="node">
<title>NavbarComponent</title>
<polygon fill="#ffffb3" stroke="#000000" points="1109.0297,-198 986.9703,-198 986.9703,-162 1109.0297,-162 1109.0297,-198"/>
<text text-anchor="middle" x="1048" y="-175.8" font-family="Times,serif" font-size="14.00" fill="#000000">NavbarComponent</text>
</g>
<!-- NavbarComponent&#45;&gt;AppModule -->
<g id="edge7" class="edge">
<title>NavbarComponent&#45;&gt;AppModule</title>
<path fill="none" stroke="#000000" d="M1003.7819,-198.1061C1003.7819,-198.1061 1003.7819,-216.991 1003.7819,-216.991"/>
<polygon fill="#000000" stroke="#000000" points="1000.282,-216.9909 1003.7819,-226.991 1007.282,-216.991 1000.282,-216.9909"/>
</g>
<!-- NotifyComponent -->
<g id="node8" class="node">
<title>NotifyComponent</title>
<polygon fill="#ffffb3" stroke="#000000" points="968.8809,-198 851.1191,-198 851.1191,-162 968.8809,-162 968.8809,-198"/>
<text text-anchor="middle" x="910" y="-175.8" font-family="Times,serif" font-size="14.00" fill="#000000">NotifyComponent</text>
</g>
<!-- NotifyComponent&#45;&gt;AppModule -->
<g id="edge8" class="edge">
<title>NotifyComponent&#45;&gt;AppModule</title>
<path fill="none" stroke="#000000" d="M953.0561,-198.1061C953.0561,-198.1061 953.0561,-216.991 953.0561,-216.991"/>
<polygon fill="#000000" stroke="#000000" points="949.5562,-216.9909 953.0561,-226.991 956.5562,-216.991 949.5562,-216.9909"/>
</g>
<!-- PaysComponent -->
<g id="node9" class="node">
<title>PaysComponent</title>
<polygon fill="#ffffb3" stroke="#000000" points="832.7744,-198 725.2256,-198 725.2256,-162 832.7744,-162 832.7744,-198"/>
<text text-anchor="middle" x="779" y="-175.8" font-family="Times,serif" font-size="14.00" fill="#000000">PaysComponent</text>
</g>
<!-- PaysComponent&#45;&gt;AppModule -->
<g id="edge9" class="edge">
<title>PaysComponent&#45;&gt;AppModule</title>
<path fill="none" stroke="#000000" d="M779,-198.2396C779,-213.5706 779,-233 779,-233 779,-233 927.0734,-233 927.0734,-233"/>
<polygon fill="#000000" stroke="#000000" points="927.0735,-236.5001 937.0734,-233 927.0734,-229.5001 927.0735,-236.5001"/>
</g>
<!-- ProfileComponent -->
<g id="node10" class="node">
<title>ProfileComponent</title>
<polygon fill="#ffffb3" stroke="#000000" points="706.9328,-198 587.0672,-198 587.0672,-162 706.9328,-162 706.9328,-198"/>
<text text-anchor="middle" x="647" y="-175.8" font-family="Times,serif" font-size="14.00" fill="#000000">ProfileComponent</text>
</g>
<!-- ProfileComponent&#45;&gt;AppModule -->
<g id="edge10" class="edge">
<title>ProfileComponent&#45;&gt;AppModule</title>
<path fill="none" stroke="#000000" d="M647,-198.0336C647,-215.0597 647,-238 647,-238 647,-238 927.2881,-238 927.2881,-238"/>
<polygon fill="#000000" stroke="#000000" points="927.2882,-241.5001 937.2881,-238 927.2881,-234.5001 927.2882,-241.5001"/>
</g>
<!-- AppComponent  -->
<g id="node13" class="node">
<title>AppComponent </title>
<polygon fill="#80b1d3" stroke="#000000" points="1033.439,-328 924.561,-328 924.561,-292 1033.439,-292 1033.439,-328"/>
<text text-anchor="middle" x="979" y="-305.8" font-family="Times,serif" font-size="14.00" fill="#000000">AppComponent </text>
</g>
<!-- AppModule&#45;&gt;AppComponent  -->
<g id="edge12" class="edge">
<title>AppModule&#45;&gt;AppComponent </title>
<path fill="none" stroke="#000000" stroke-dasharray="1,5" d="M979,-263.1061C979,-263.1061 979,-281.991 979,-281.991"/>
<polygon fill="#000000" stroke="#000000" points="975.5001,-281.9909 979,-291.991 982.5001,-281.991 975.5001,-281.9909"/>
</g>
<!-- AuthModule -->
<g id="node12" class="node">
<title>AuthModule</title>
<polygon fill="#8dd3c7" stroke="#000000" points="562.5482,-198 559.5482,-202 538.5482,-202 535.5482,-198 475.4518,-198 475.4518,-162 562.5482,-162 562.5482,-198"/>
<text text-anchor="middle" x="519" y="-175.8" font-family="Times,serif" font-size="14.00" fill="#000000">AuthModule</text>
</g>
<!-- AuthModule&#45;&gt;AppModule -->
<g id="edge11" class="edge">
<title>AuthModule&#45;&gt;AppModule</title>
<path fill="none" stroke="#000000" d="M519,-198.2222C519,-216.8285 519,-243 519,-243 519,-243 926.9586,-243 926.9586,-243"/>
<polygon fill="#000000" stroke="#000000" points="926.9587,-246.5001 936.9586,-243 926.9586,-239.5001 926.9587,-246.5001"/>
</g>
<!-- AnswersService -->
<g id="node14" class="node">
<title>AnswersService</title>
<ellipse fill="#fdb462" stroke="#000000" cx="377" cy="-180" rx="73.5522" ry="18"/>
<text text-anchor="middle" x="377" y="-175.8" font-family="Times,serif" font-size="14.00" fill="#000000">AnswersService</text>
</g>
<!-- AnswersService&#45;&gt;AppModule -->
<g id="edge13" class="edge">
<title>AnswersService&#45;&gt;AppModule</title>
<path fill="none" stroke="#000000" d="M377,-198.2228C377,-218.3652 377,-248 377,-248 377,-248 927.1465,-248 927.1465,-248"/>
<polygon fill="#000000" stroke="#000000" points="927.1465,-251.5001 937.1465,-248 927.1464,-244.5001 927.1465,-251.5001"/>
</g>
<!-- PostsService -->
<g id="node15" class="node">
<title>PostsService</title>
<ellipse fill="#fdb462" stroke="#000000" cx="225" cy="-180" rx="60.2672" ry="18"/>
<text text-anchor="middle" x="225" y="-175.8" font-family="Times,serif" font-size="14.00" fill="#000000">PostsService</text>
</g>
<!-- PostsService&#45;&gt;AppModule -->
<g id="edge14" class="edge">
<title>PostsService&#45;&gt;AppModule</title>
<path fill="none" stroke="#000000" d="M225,-198.0449C225,-219.6623 225,-253 225,-253 225,-253 927.1172,-253 927.1172,-253"/>
<polygon fill="#000000" stroke="#000000" points="927.1173,-256.5001 937.1172,-253 927.1172,-249.5001 927.1173,-256.5001"/>
</g>
<!-- RatesService -->
<g id="node16" class="node">
<title>RatesService</title>
<ellipse fill="#fdb462" stroke="#000000" cx="85" cy="-180" rx="61.3896" ry="18"/>
<text text-anchor="middle" x="85" y="-175.8" font-family="Times,serif" font-size="14.00" fill="#000000">RatesService</text>
</g>
<!-- RatesService&#45;&gt;AppModule -->
<g id="edge15" class="edge">
<title>RatesService&#45;&gt;AppModule</title>
<path fill="none" stroke="#000000" d="M85,-198.0908C85,-221.1328 85,-258 85,-258 85,-258 927.0796,-258 927.0796,-258"/>
<polygon fill="#000000" stroke="#000000" points="927.0797,-261.5001 937.0796,-258 927.0796,-254.5001 927.0797,-261.5001"/>
</g>
<!-- LoginComponent -->
<g id="node17" class="node">
<title>LoginComponent</title>
<polygon fill="#ffffb3" stroke="#000000" points="850.2758,-122 735.7242,-122 735.7242,-86 850.2758,-86 850.2758,-122"/>
<text text-anchor="middle" x="793" y="-99.8" font-family="Times,serif" font-size="14.00" fill="#000000">LoginComponent</text>
</g>
<!-- LoginComponent&#45;&gt;AuthModule -->
<g id="edge16" class="edge">
<title>LoginComponent&#45;&gt;AuthModule</title>
<path fill="none" stroke="#000000" d="M784.2497,-122.0439C784.2497,-134.5633 784.2497,-149 784.2497,-149 784.2497,-149 540.8868,-149 540.8868,-149 540.8868,-149 540.8868,-151.9672 540.8868,-151.9672"/>
<polygon fill="#000000" stroke="#000000" points="537.3868,-151.9671 540.8868,-161.9672 544.3868,-151.9672 537.3868,-151.9671"/>
</g>
<!-- RegisterComponent -->
<g id="node18" class="node">
<title>RegisterComponent</title>
<polygon fill="#ffffb3" stroke="#000000" points="717.9846,-122 590.0154,-122 590.0154,-86 717.9846,-86 717.9846,-122"/>
<text text-anchor="middle" x="654" y="-99.8" font-family="Times,serif" font-size="14.00" fill="#000000">RegisterComponent</text>
</g>
<!-- RegisterComponent&#45;&gt;AuthModule -->
<g id="edge17" class="edge">
<title>RegisterComponent&#45;&gt;AuthModule</title>
<path fill="none" stroke="#000000" d="M589.8877,-104C583.8296,-104 579.8934,-104 579.8934,-104 579.8934,-104 579.8934,-180 579.8934,-180 579.8934,-180 572.6067,-180 572.6067,-180"/>
<polygon fill="#000000" stroke="#000000" points="572.6067,-176.5001 562.6067,-180 572.6066,-183.5001 572.6067,-176.5001"/>
</g>
<!-- SignComponent -->
<g id="node19" class="node">
<title>SignComponent</title>
<polygon fill="#ffffb3" stroke="#000000" points="572.5056,-122 465.4944,-122 465.4944,-86 572.5056,-86 572.5056,-122"/>
<text text-anchor="middle" x="519" y="-99.8" font-family="Times,serif" font-size="14.00" fill="#000000">SignComponent</text>
</g>
<!-- SignComponent&#45;&gt;AuthModule -->
<g id="edge18" class="edge">
<title>SignComponent&#45;&gt;AuthModule</title>
<path fill="none" stroke="#000000" d="M519,-122.0109C519,-122.0109 519,-151.855 519,-151.855"/>
<polygon fill="#000000" stroke="#000000" points="515.5001,-151.8549 519,-161.855 522.5001,-151.855 515.5001,-151.8549"/>
</g>
<!-- AuthRoutingModule -->
<g id="node20" class="node">
<title>AuthRoutingModule</title>
<polygon fill="#8dd3c7" stroke="#000000" points="441.1652,-122 438.1652,-126 417.1652,-126 414.1652,-122 308.8348,-122 308.8348,-86 441.1652,-86 441.1652,-122"/>
<text text-anchor="middle" x="375" y="-99.8" font-family="Times,serif" font-size="14.00" fill="#000000">AuthRoutingModule</text>
</g>
<!-- AuthRoutingModule&#45;&gt;AuthModule -->
<g id="edge19" class="edge">
<title>AuthRoutingModule&#45;&gt;AuthModule</title>
<path fill="none" stroke="#000000" d="M441.3126,-104C451.1898,-104 458.1365,-104 458.1365,-104 458.1365,-104 458.1365,-180 458.1365,-180 458.1365,-180 465.4147,-180 465.4147,-180"/>
<polygon fill="#000000" stroke="#000000" points="465.4148,-183.5001 475.4147,-180 465.4147,-176.5001 465.4148,-183.5001"/>
</g>
<!-- AuthenticationService -->
<g id="node21" class="node">
<title>AuthenticationService</title>
<ellipse fill="#fdb462" stroke="#000000" cx="188" cy="-104" rx="97.2683" ry="18"/>
<text text-anchor="middle" x="188" y="-99.8" font-family="Times,serif" font-size="14.00" fill="#000000">AuthenticationService</text>
</g>
<!-- AuthenticationService&#45;&gt;AuthModule -->
<g id="edge20" class="edge">
<title>AuthenticationService&#45;&gt;AuthModule</title>
<path fill="none" stroke="#000000" d="M225,-120.7498C225,-128.4922 225,-136 225,-136 225,-136 497.1133,-136 497.1133,-136 497.1133,-136 497.1133,-151.8495 497.1133,-151.8495"/>
<polygon fill="#000000" stroke="#000000" points="493.6133,-151.8494 497.1133,-161.8495 500.6133,-151.8495 493.6133,-151.8494"/>
</g>
</g>
</svg>
