<?xml version="1.0" encoding="UTF-8" standalone="no"?>
<!DOCTYPE svg PUBLIC "-//W3C//DTD SVG 1.1//EN"
 "http://www.w3.org/Graphics/SVG/1.1/DTD/svg11.dtd">
<!-- Generated by graphviz version 2.40.1 (20161225.0304)
 -->
<!-- Title: dependencies Pages: 1 -->
<svg width="1869pt" height="287pt"
 viewBox="0.00 0.00 1869.00 287.00" xmlns="http://www.w3.org/2000/svg" xmlns:xlink="http://www.w3.org/1999/xlink">
<g id="graph0" class="graph" transform="scale(1 1) rotate(0) translate(4 283)">
<title>dependencies</title>
<polygon fill="#ffffff" stroke="transparent" points="-4,4 -4,-283 1865,-283 1865,4 -4,4"/>
<text text-anchor="start" x="909.5091" y="-42.4" font-family="sans-serif" font-weight="bold" font-size="14.00" fill="#000000">Legend</text>
<polygon fill="#ffffb3" stroke="transparent" points="696.5,-10 696.5,-30 716.5,-30 716.5,-10 696.5,-10"/>
<text text-anchor="start" x="720.129" y="-15.4" font-family="sans-serif" font-size="14.00" fill="#000000"> &#160;Declarations</text>
<polygon fill="#8dd3c7" stroke="transparent" points="809.5,-10 809.5,-30 829.5,-30 829.5,-10 809.5,-10"/>
<text text-anchor="start" x="833.2251" y="-15.4" font-family="sans-serif" font-size="14.00" fill="#000000"> &#160;Module</text>
<polygon fill="#80b1d3" stroke="transparent" points="895.5,-10 895.5,-30 915.5,-30 915.5,-10 895.5,-10"/>
<text text-anchor="start" x="919.2812" y="-15.4" font-family="sans-serif" font-size="14.00" fill="#000000"> &#160;Bootstrap</text>
<polygon fill="#fdb462" stroke="transparent" points="992.5,-10 992.5,-30 1012.5,-30 1012.5,-10 992.5,-10"/>
<text text-anchor="start" x="1016.1732" y="-15.4" font-family="sans-serif" font-size="14.00" fill="#000000"> &#160;Providers</text>
<polygon fill="#fb8072" stroke="transparent" points="1088.5,-10 1088.5,-30 1108.5,-30 1108.5,-10 1088.5,-10"/>
<text text-anchor="start" x="1112.2258" y="-15.4" font-family="sans-serif" font-size="14.00" fill="#000000"> &#160;Exports</text>
<g id="clust1" class="cluster">
<title>cluster_AppModule</title>
<polygon fill="none" stroke="#000000" stroke-dasharray="1,5" points="8,-146 8,-271 1853,-271 1853,-146 8,-146"/>
</g>
<g id="clust2" class="cluster">
<title>cluster_AppModule_declarations</title>
<polygon fill="none" stroke="#000000" points="579,-154 579,-206 1845,-206 1845,-154 579,-154"/>
</g>
<g id="clust12" class="cluster">
<title>cluster_AppModule_imports</title>
<polygon fill="none" stroke="#000000" points="467,-154 467,-206 571,-206 571,-154 467,-154"/>
</g>
<g id="clust15" class="cluster">
<title>cluster_AppModule_providers</title>
<polygon fill="none" stroke="#000000" points="16,-154 16,-206 459,-206 459,-154 16,-154"/>
</g>
<g id="clust16" class="cluster">
<title>cluster_AuthModule</title>
<polygon fill="none" stroke="#000000" stroke-dasharray="1,5" points="75,-70 75,-138 866,-138 866,-70 75,-70"/>
</g>
<g id="clust17" class="cluster">
<title>cluster_AuthModule_declarations</title>
<polygon fill="none" stroke="#000000" points="457,-78 457,-130 858,-130 858,-78 457,-78"/>
</g>
<g id="clust21" class="cluster">
<title>cluster_AuthModule_imports</title>
<polygon fill="none" stroke="#000000" points="301,-78 301,-130 449,-130 449,-78 301,-78"/>
</g>
<g id="clust24" class="cluster">
<title>cluster_AuthModule_providers</title>
<polygon fill="none" stroke="#000000" points="83,-78 83,-130 293,-130 293,-78 83,-78"/>
</g>
<!-- AnswersComponent -->
<g id="node1" class="node">
<title>AnswersComponent</title>
<polygon fill="#ffffb3" stroke="#000000" points="1837.3104,-198 1706.6896,-198 1706.6896,-162 1837.3104,-162 1837.3104,-198"/>
<text text-anchor="middle" x="1772" y="-175.8" font-family="Times,serif" font-size="14.00" fill="#000000">AnswersComponent</text>
</g>
<!-- AppModule -->
<g id="node10" class="node">
<title>AppModule</title>
<polygon fill="#8dd3c7" stroke="#000000" points="951.6571,-263 948.6571,-267 927.6571,-267 924.6571,-263 868.3429,-263 868.3429,-227 951.6571,-227 951.6571,-263"/>
<text text-anchor="middle" x="910" y="-240.8" font-family="Times,serif" font-size="14.00" fill="#000000">AppModule</text>
</g>
<!-- AnswersComponent&#45;&gt;AppModule -->
<g id="edge1" class="edge">
<title>AnswersComponent&#45;&gt;AppModule</title>
<path fill="none" stroke="#000000" d="M1772,-198.0908C1772,-221.1328 1772,-258 1772,-258 1772,-258 961.8674,-258 961.8674,-258"/>
<polygon fill="#000000" stroke="#000000" points="961.8674,-254.5001 951.8674,-258 961.8673,-261.5001 961.8674,-254.5001"/>
</g>
<!-- DashboardComponent -->
<g id="node2" class="node">
<title>DashboardComponent</title>
<polygon fill="#ffffb3" stroke="#000000" points="1688.9734,-198 1547.0266,-198 1547.0266,-162 1688.9734,-162 1688.9734,-198"/>
<text text-anchor="middle" x="1618" y="-175.8" font-family="Times,serif" font-size="14.00" fill="#000000">DashboardComponent</text>
</g>
<!-- DashboardComponent&#45;&gt;AppModule -->
<g id="edge2" class="edge">
<title>DashboardComponent&#45;&gt;AppModule</title>
<path fill="none" stroke="#000000" d="M1618,-198.0449C1618,-219.6623 1618,-253 1618,-253 1618,-253 961.9065,-253 961.9065,-253"/>
<polygon fill="#000000" stroke="#000000" points="961.9066,-249.5001 951.9065,-253 961.9065,-256.5001 961.9066,-249.5001"/>
</g>
<!-- DiscoverComponent -->
<g id="node3" class="node">
<title>DiscoverComponent</title>
<polygon fill="#ffffb3" stroke="#000000" points="1528.8641,-198 1397.1359,-198 1397.1359,-162 1528.8641,-162 1528.8641,-198"/>
<text text-anchor="middle" x="1463" y="-175.8" font-family="Times,serif" font-size="14.00" fill="#000000">DiscoverComponent</text>
</g>
<!-- DiscoverComponent&#45;&gt;AppModule -->
<g id="edge3" class="edge">
<title>DiscoverComponent&#45;&gt;AppModule</title>
<path fill="none" stroke="#000000" d="M1463,-198.2228C1463,-218.3652 1463,-248 1463,-248 1463,-248 962.0188,-248 962.0188,-248"/>
<polygon fill="#000000" stroke="#000000" points="962.0188,-244.5001 952.0188,-248 962.0187,-251.5001 962.0188,-244.5001"/>
</g>
<!-- FooterComponent -->
<g id="node4" class="node">
<title>FooterComponent</title>
<polygon fill="#ffffb3" stroke="#000000" points="1378.8809,-198 1261.1191,-198 1261.1191,-162 1378.8809,-162 1378.8809,-198"/>
<text text-anchor="middle" x="1320" y="-175.8" font-family="Times,serif" font-size="14.00" fill="#000000">FooterComponent</text>
</g>
<!-- FooterComponent&#45;&gt;AppModule -->
<g id="edge4" class="edge">
<title>FooterComponent&#45;&gt;AppModule</title>
<path fill="none" stroke="#000000" d="M1320,-198.2222C1320,-216.8285 1320,-243 1320,-243 1320,-243 961.9504,-243 961.9504,-243"/>
<polygon fill="#000000" stroke="#000000" points="961.9504,-239.5001 951.9504,-243 961.9504,-246.5001 961.9504,-239.5001"/>
</g>
<!-- HomeComponent -->
<g id="node5" class="node">
<title>HomeComponent</title>
<polygon fill="#ffffb3" stroke="#000000" points="1242.5451,-198 1127.4549,-198 1127.4549,-162 1242.5451,-162 1242.5451,-198"/>
<text text-anchor="middle" x="1185" y="-175.8" font-family="Times,serif" font-size="14.00" fill="#000000">HomeComponent</text>
</g>
<!-- HomeComponent&#45;&gt;AppModule -->
<g id="edge5" class="edge">
<title>HomeComponent&#45;&gt;AppModule</title>
<path fill="none" stroke="#000000" d="M1185,-198.0336C1185,-215.0597 1185,-238 1185,-238 1185,-238 961.7666,-238 961.7666,-238"/>
<polygon fill="#000000" stroke="#000000" points="961.7666,-234.5001 951.7666,-238 961.7665,-241.5001 961.7666,-234.5001"/>
</g>
<!-- NavbarComponent -->
<g id="node6" class="node">
<title>NavbarComponent</title>
<polygon fill="#ffffb3" stroke="#000000" points="1109.0297,-198 986.9703,-198 986.9703,-162 1109.0297,-162 1109.0297,-198"/>
<text text-anchor="middle" x="1048" y="-175.8" font-family="Times,serif" font-size="14.00" fill="#000000">NavbarComponent</text>
</g>
<!-- NavbarComponent&#45;&gt;AppModule -->
<g id="edge6" class="edge">
<title>NavbarComponent&#45;&gt;AppModule</title>
<path fill="none" stroke="#000000" d="M1048,-198.2396C1048,-213.5706 1048,-233 1048,-233 1048,-233 961.779,-233 961.779,-233"/>
<polygon fill="#000000" stroke="#000000" points="961.7791,-229.5001 951.779,-233 961.779,-236.5001 961.7791,-229.5001"/>
</g>
<!-- NotifyComponent -->
<g id="node7" class="node">
<title>NotifyComponent</title>
<polygon fill="#ffffb3" stroke="#000000" points="968.8809,-198 851.1191,-198 851.1191,-162 968.8809,-162 968.8809,-198"/>
<text text-anchor="middle" x="910" y="-175.8" font-family="Times,serif" font-size="14.00" fill="#000000">NotifyComponent</text>
</g>
<!-- NotifyComponent&#45;&gt;AppModule -->
<g id="edge7" class="edge">
<title>NotifyComponent&#45;&gt;AppModule</title>
<path fill="none" stroke="#000000" d="M910,-198.1061C910,-198.1061 910,-216.991 910,-216.991"/>
<polygon fill="#000000" stroke="#000000" points="906.5001,-216.9909 910,-226.991 913.5001,-216.991 906.5001,-216.9909"/>
</g>
<!-- PaysComponent -->
<g id="node8" class="node">
<title>PaysComponent</title>
<polygon fill="#ffffb3" stroke="#000000" points="832.7744,-198 725.2256,-198 725.2256,-162 832.7744,-162 832.7744,-198"/>
<text text-anchor="middle" x="779" y="-175.8" font-family="Times,serif" font-size="14.00" fill="#000000">PaysComponent</text>
</g>
<!-- PaysComponent&#45;&gt;AppModule -->
<g id="edge8" class="edge">
<title>PaysComponent&#45;&gt;AppModule</title>
<path fill="none" stroke="#000000" d="M779,-198.2396C779,-213.5706 779,-233 779,-233 779,-233 858.1906,-233 858.1906,-233"/>
<polygon fill="#000000" stroke="#000000" points="858.1906,-236.5001 868.1906,-233 858.1906,-229.5001 858.1906,-236.5001"/>
</g>
<!-- ProfileComponent -->
<g id="node9" class="node">
<title>ProfileComponent</title>
<polygon fill="#ffffb3" stroke="#000000" points="706.9328,-198 587.0672,-198 587.0672,-162 706.9328,-162 706.9328,-198"/>
<text text-anchor="middle" x="647" y="-175.8" font-family="Times,serif" font-size="14.00" fill="#000000">ProfileComponent</text>
</g>
<!-- ProfileComponent&#45;&gt;AppModule -->
<g id="edge9" class="edge">
<title>ProfileComponent&#45;&gt;AppModule</title>
<path fill="none" stroke="#000000" d="M647,-198.0336C647,-215.0597 647,-238 647,-238 647,-238 858.3269,-238 858.3269,-238"/>
<polygon fill="#000000" stroke="#000000" points="858.3269,-241.5001 868.3269,-238 858.3268,-234.5001 858.3269,-241.5001"/>
</g>
<!-- AuthModule -->
<g id="node11" class="node">
<title>AuthModule</title>
<polygon fill="#8dd3c7" stroke="#000000" points="562.5482,-198 559.5482,-202 538.5482,-202 535.5482,-198 475.4518,-198 475.4518,-162 562.5482,-162 562.5482,-198"/>
<text text-anchor="middle" x="519" y="-175.8" font-family="Times,serif" font-size="14.00" fill="#000000">AuthModule</text>
</g>
<!-- AuthModule&#45;&gt;AppModule -->
<g id="edge10" class="edge">
<title>AuthModule&#45;&gt;AppModule</title>
<path fill="none" stroke="#000000" d="M519,-198.2222C519,-216.8285 519,-243 519,-243 519,-243 858.1562,-243 858.1562,-243"/>
<polygon fill="#000000" stroke="#000000" points="858.1562,-246.5001 868.1562,-243 858.1561,-239.5001 858.1562,-246.5001"/>
</g>
<!-- AnswersService -->
<g id="node12" class="node">
<title>AnswersService</title>
<ellipse fill="#fdb462" stroke="#000000" cx="377" cy="-180" rx="73.5522" ry="18"/>
<text text-anchor="middle" x="377" y="-175.8" font-family="Times,serif" font-size="14.00" fill="#000000">AnswersService</text>
</g>
<!-- AnswersService&#45;&gt;AppModule -->
<g id="edge11" class="edge">
<title>AnswersService&#45;&gt;AppModule</title>
<path fill="none" stroke="#000000" d="M377,-198.2228C377,-218.3652 377,-248 377,-248 377,-248 858.1764,-248 858.1764,-248"/>
<polygon fill="#000000" stroke="#000000" points="858.1764,-251.5001 868.1764,-248 858.1763,-244.5001 858.1764,-251.5001"/>
</g>
<!-- PostsService -->
<g id="node13" class="node">
<title>PostsService</title>
<ellipse fill="#fdb462" stroke="#000000" cx="225" cy="-180" rx="60.2672" ry="18"/>
<text text-anchor="middle" x="225" y="-175.8" font-family="Times,serif" font-size="14.00" fill="#000000">PostsService</text>
</g>
<!-- PostsService&#45;&gt;AppModule -->
<g id="edge12" class="edge">
<title>PostsService&#45;&gt;AppModule</title>
<path fill="none" stroke="#000000" d="M225,-198.0449C225,-219.6623 225,-253 225,-253 225,-253 858.1813,-253 858.1813,-253"/>
<polygon fill="#000000" stroke="#000000" points="858.1814,-256.5001 868.1813,-253 858.1813,-249.5001 858.1814,-256.5001"/>
</g>
<!-- RatesService -->
<g id="node14" class="node">
<title>RatesService</title>
<ellipse fill="#fdb462" stroke="#000000" cx="85" cy="-180" rx="61.3896" ry="18"/>
<text text-anchor="middle" x="85" y="-175.8" font-family="Times,serif" font-size="14.00" fill="#000000">RatesService</text>
</g>
<!-- RatesService&#45;&gt;AppModule -->
<g id="edge13" class="edge">
<title>RatesService&#45;&gt;AppModule</title>
<path fill="none" stroke="#000000" d="M85,-198.0908C85,-221.1328 85,-258 85,-258 85,-258 858.2388,-258 858.2388,-258"/>
<polygon fill="#000000" stroke="#000000" points="858.2388,-261.5001 868.2388,-258 858.2387,-254.5001 858.2388,-261.5001"/>
</g>
<!-- LoginComponent -->
<g id="node15" class="node">
<title>LoginComponent</title>
<polygon fill="#ffffb3" stroke="#000000" points="850.2758,-122 735.7242,-122 735.7242,-86 850.2758,-86 850.2758,-122"/>
<text text-anchor="middle" x="793" y="-99.8" font-family="Times,serif" font-size="14.00" fill="#000000">LoginComponent</text>
</g>
<!-- LoginComponent&#45;&gt;AuthModule -->
<g id="edge14" class="edge">
<title>LoginComponent&#45;&gt;AuthModule</title>
<path fill="none" stroke="#000000" d="M784.2497,-122.0439C784.2497,-134.5633 784.2497,-149 784.2497,-149 784.2497,-149 540.8868,-149 540.8868,-149 540.8868,-149 540.8868,-151.9672 540.8868,-151.9672"/>
<polygon fill="#000000" stroke="#000000" points="537.3868,-151.9671 540.8868,-161.9672 544.3868,-151.9672 537.3868,-151.9671"/>
</g>
<!-- RegisterComponent -->
<g id="node16" class="node">
<title>RegisterComponent</title>
<polygon fill="#ffffb3" stroke="#000000" points="717.9846,-122 590.0154,-122 590.0154,-86 717.9846,-86 717.9846,-122"/>
<text text-anchor="middle" x="654" y="-99.8" font-family="Times,serif" font-size="14.00" fill="#000000">RegisterComponent</text>
</g>
<!-- RegisterComponent&#45;&gt;AuthModule -->
<g id="edge15" class="edge">
<title>RegisterComponent&#45;&gt;AuthModule</title>
<path fill="none" stroke="#000000" d="M589.8877,-104C583.8296,-104 579.8934,-104 579.8934,-104 579.8934,-104 579.8934,-180 579.8934,-180 579.8934,-180 572.6067,-180 572.6067,-180"/>
<polygon fill="#000000" stroke="#000000" points="572.6067,-176.5001 562.6067,-180 572.6066,-183.5001 572.6067,-176.5001"/>
</g>
<!-- SignComponent -->
<g id="node17" class="node">
<title>SignComponent</title>
<polygon fill="#ffffb3" stroke="#000000" points="572.5056,-122 465.4944,-122 465.4944,-86 572.5056,-86 572.5056,-122"/>
<text text-anchor="middle" x="519" y="-99.8" font-family="Times,serif" font-size="14.00" fill="#000000">SignComponent</text>
</g>
<!-- SignComponent&#45;&gt;AuthModule -->
<g id="edge16" class="edge">
<title>SignComponent&#45;&gt;AuthModule</title>
<path fill="none" stroke="#000000" d="M519,-122.0109C519,-122.0109 519,-151.855 519,-151.855"/>
<polygon fill="#000000" stroke="#000000" points="515.5001,-151.8549 519,-161.855 522.5001,-151.855 515.5001,-151.8549"/>
</g>
<!-- AuthRoutingModule -->
<g id="node18" class="node">
<title>AuthRoutingModule</title>
<polygon fill="#8dd3c7" stroke="#000000" points="441.1652,-122 438.1652,-126 417.1652,-126 414.1652,-122 308.8348,-122 308.8348,-86 441.1652,-86 441.1652,-122"/>
<text text-anchor="middle" x="375" y="-99.8" font-family="Times,serif" font-size="14.00" fill="#000000">AuthRoutingModule</text>
</g>
<!-- AuthRoutingModule&#45;&gt;AuthModule -->
<g id="edge17" class="edge">
<title>AuthRoutingModule&#45;&gt;AuthModule</title>
<path fill="none" stroke="#000000" d="M441.3126,-104C451.1898,-104 458.1365,-104 458.1365,-104 458.1365,-104 458.1365,-180 458.1365,-180 458.1365,-180 465.4147,-180 465.4147,-180"/>
<polygon fill="#000000" stroke="#000000" points="465.4148,-183.5001 475.4147,-180 465.4147,-176.5001 465.4148,-183.5001"/>
</g>
<!-- AuthenticationService -->
<g id="node19" class="node">
<title>AuthenticationService</title>
<ellipse fill="#fdb462" stroke="#000000" cx="188" cy="-104" rx="97.2683" ry="18"/>
<text text-anchor="middle" x="188" y="-99.8" font-family="Times,serif" font-size="14.00" fill="#000000">AuthenticationService</text>
</g>
<!-- AuthenticationService&#45;&gt;AuthModule -->
<g id="edge18" class="edge">
<title>AuthenticationService&#45;&gt;AuthModule</title>
<path fill="none" stroke="#000000" d="M225,-120.7498C225,-128.4922 225,-136 225,-136 225,-136 497.1133,-136 497.1133,-136 497.1133,-136 497.1133,-151.8495 497.1133,-151.8495"/>
<polygon fill="#000000" stroke="#000000" points="493.6133,-151.8494 497.1133,-161.8495 500.6133,-151.8495 493.6133,-151.8494"/>
</g>
</g>
</svg>
