<?xml version="1.0" encoding="UTF-8" standalone="no"?>
<!DOCTYPE svg PUBLIC "-//W3C//DTD SVG 1.1//EN"
 "http://www.w3.org/Graphics/SVG/1.1/DTD/svg11.dtd">
<!-- Generated by graphviz version 2.40.1 (20161225.0304)
 -->
<!-- Title: dependencies Pages: 1 -->
<svg width="1869pt" height="211pt"
 viewBox="0.00 0.00 1869.00 211.00" xmlns="http://www.w3.org/2000/svg" xmlns:xlink="http://www.w3.org/1999/xlink">
<g id="graph0" class="graph" transform="scale(1 1) rotate(0) translate(4 207)">
<title>dependencies</title>
<polygon fill="#ffffff" stroke="transparent" points="-4,4 -4,-207 1865,-207 1865,4 -4,4"/>
<text text-anchor="start" x="909.5091" y="-42.4" font-family="sans-serif" font-weight="bold" font-size="14.00" fill="#000000">Legend</text>
<polygon fill="#ffffb3" stroke="transparent" points="696.5,-10 696.5,-30 716.5,-30 716.5,-10 696.5,-10"/>
<text text-anchor="start" x="720.129" y="-15.4" font-family="sans-serif" font-size="14.00" fill="#000000"> &#160;Declarations</text>
<polygon fill="#8dd3c7" stroke="transparent" points="809.5,-10 809.5,-30 829.5,-30 829.5,-10 809.5,-10"/>
<text text-anchor="start" x="833.2251" y="-15.4" font-family="sans-serif" font-size="14.00" fill="#000000"> &#160;Module</text>
<polygon fill="#80b1d3" stroke="transparent" points="895.5,-10 895.5,-30 915.5,-30 915.5,-10 895.5,-10"/>
<text text-anchor="start" x="919.2812" y="-15.4" font-family="sans-serif" font-size="14.00" fill="#000000"> &#160;Bootstrap</text>
<polygon fill="#fdb462" stroke="transparent" points="992.5,-10 992.5,-30 1012.5,-30 1012.5,-10 992.5,-10"/>
<text text-anchor="start" x="1016.1732" y="-15.4" font-family="sans-serif" font-size="14.00" fill="#000000"> &#160;Providers</text>
<polygon fill="#fb8072" stroke="transparent" points="1088.5,-10 1088.5,-30 1108.5,-30 1108.5,-10 1088.5,-10"/>
<text text-anchor="start" x="1112.2258" y="-15.4" font-family="sans-serif" font-size="14.00" fill="#000000"> &#160;Exports</text>
<g id="clust1" class="cluster">
<title>cluster_AppModule</title>
<polygon fill="none" stroke="#000000" stroke-dasharray="1,5" points="8,-70 8,-195 1853,-195 1853,-70 8,-70"/>
</g>
<g id="clust2" class="cluster">
<title>cluster_AppModule_declarations</title>
<polygon fill="none" stroke="#000000" points="579,-78 579,-130 1845,-130 1845,-78 579,-78"/>
</g>
<g id="clust12" class="cluster">
<title>cluster_AppModule_imports</title>
<polygon fill="none" stroke="#000000" points="467,-78 467,-130 571,-130 571,-78 467,-78"/>
</g>
<g id="clust15" class="cluster">
<title>cluster_AppModule_providers</title>
<polygon fill="none" stroke="#000000" points="16,-78 16,-130 459,-130 459,-78 16,-78"/>
</g>
<!-- AnswersComponent -->
<g id="node1" class="node">
<title>AnswersComponent</title>
<polygon fill="#ffffb3" stroke="#000000" points="1837.3104,-122 1706.6896,-122 1706.6896,-86 1837.3104,-86 1837.3104,-122"/>
<text text-anchor="middle" x="1772" y="-99.8" font-family="Times,serif" font-size="14.00" fill="#000000">AnswersComponent</text>
</g>
<!-- AppModule -->
<g id="node10" class="node">
<title>AppModule</title>
<polygon fill="#8dd3c7" stroke="#000000" points="951.6571,-187 948.6571,-191 927.6571,-191 924.6571,-187 868.3429,-187 868.3429,-151 951.6571,-151 951.6571,-187"/>
<text text-anchor="middle" x="910" y="-164.8" font-family="Times,serif" font-size="14.00" fill="#000000">AppModule</text>
</g>
<!-- AnswersComponent&#45;&gt;AppModule -->
<g id="edge1" class="edge">
<title>AnswersComponent&#45;&gt;AppModule</title>
<path fill="none" stroke="#000000" d="M1772,-122.0908C1772,-145.1328 1772,-182 1772,-182 1772,-182 961.8674,-182 961.8674,-182"/>
<polygon fill="#000000" stroke="#000000" points="961.8674,-178.5001 951.8674,-182 961.8673,-185.5001 961.8674,-178.5001"/>
</g>
<!-- DashboardComponent -->
<g id="node2" class="node">
<title>DashboardComponent</title>
<polygon fill="#ffffb3" stroke="#000000" points="1688.9734,-122 1547.0266,-122 1547.0266,-86 1688.9734,-86 1688.9734,-122"/>
<text text-anchor="middle" x="1618" y="-99.8" font-family="Times,serif" font-size="14.00" fill="#000000">DashboardComponent</text>
</g>
<!-- DashboardComponent&#45;&gt;AppModule -->
<g id="edge2" class="edge">
<title>DashboardComponent&#45;&gt;AppModule</title>
<path fill="none" stroke="#000000" d="M1618,-122.0449C1618,-143.6623 1618,-177 1618,-177 1618,-177 961.9065,-177 961.9065,-177"/>
<polygon fill="#000000" stroke="#000000" points="961.9066,-173.5001 951.9065,-177 961.9065,-180.5001 961.9066,-173.5001"/>
</g>
<!-- DiscoverComponent -->
<g id="node3" class="node">
<title>DiscoverComponent</title>
<polygon fill="#ffffb3" stroke="#000000" points="1528.8641,-122 1397.1359,-122 1397.1359,-86 1528.8641,-86 1528.8641,-122"/>
<text text-anchor="middle" x="1463" y="-99.8" font-family="Times,serif" font-size="14.00" fill="#000000">DiscoverComponent</text>
</g>
<!-- DiscoverComponent&#45;&gt;AppModule -->
<g id="edge3" class="edge">
<title>DiscoverComponent&#45;&gt;AppModule</title>
<path fill="none" stroke="#000000" d="M1463,-122.2228C1463,-142.3652 1463,-172 1463,-172 1463,-172 962.0188,-172 962.0188,-172"/>
<polygon fill="#000000" stroke="#000000" points="962.0188,-168.5001 952.0188,-172 962.0187,-175.5001 962.0188,-168.5001"/>
</g>
<!-- FooterComponent -->
<g id="node4" class="node">
<title>FooterComponent</title>
<polygon fill="#ffffb3" stroke="#000000" points="1378.8809,-122 1261.1191,-122 1261.1191,-86 1378.8809,-86 1378.8809,-122"/>
<text text-anchor="middle" x="1320" y="-99.8" font-family="Times,serif" font-size="14.00" fill="#000000">FooterComponent</text>
</g>
<!-- FooterComponent&#45;&gt;AppModule -->
<g id="edge4" class="edge">
<title>FooterComponent&#45;&gt;AppModule</title>
<path fill="none" stroke="#000000" d="M1320,-122.2222C1320,-140.8285 1320,-167 1320,-167 1320,-167 961.9504,-167 961.9504,-167"/>
<polygon fill="#000000" stroke="#000000" points="961.9504,-163.5001 951.9504,-167 961.9504,-170.5001 961.9504,-163.5001"/>
</g>
<!-- HomeComponent -->
<g id="node5" class="node">
<title>HomeComponent</title>
<polygon fill="#ffffb3" stroke="#000000" points="1242.5451,-122 1127.4549,-122 1127.4549,-86 1242.5451,-86 1242.5451,-122"/>
<text text-anchor="middle" x="1185" y="-99.8" font-family="Times,serif" font-size="14.00" fill="#000000">HomeComponent</text>
</g>
<!-- HomeComponent&#45;&gt;AppModule -->
<g id="edge5" class="edge">
<title>HomeComponent&#45;&gt;AppModule</title>
<path fill="none" stroke="#000000" d="M1185,-122.0336C1185,-139.0597 1185,-162 1185,-162 1185,-162 961.7666,-162 961.7666,-162"/>
<polygon fill="#000000" stroke="#000000" points="961.7666,-158.5001 951.7666,-162 961.7665,-165.5001 961.7666,-158.5001"/>
</g>
<!-- NavbarComponent -->
<g id="node6" class="node">
<title>NavbarComponent</title>
<polygon fill="#ffffb3" stroke="#000000" points="1109.0297,-122 986.9703,-122 986.9703,-86 1109.0297,-86 1109.0297,-122"/>
<text text-anchor="middle" x="1048" y="-99.8" font-family="Times,serif" font-size="14.00" fill="#000000">NavbarComponent</text>
</g>
<!-- NavbarComponent&#45;&gt;AppModule -->
<g id="edge6" class="edge">
<title>NavbarComponent&#45;&gt;AppModule</title>
<path fill="none" stroke="#000000" d="M1048,-122.2396C1048,-137.5706 1048,-157 1048,-157 1048,-157 961.779,-157 961.779,-157"/>
<polygon fill="#000000" stroke="#000000" points="961.7791,-153.5001 951.779,-157 961.779,-160.5001 961.7791,-153.5001"/>
</g>
<!-- NotifyComponent -->
<g id="node7" class="node">
<title>NotifyComponent</title>
<polygon fill="#ffffb3" stroke="#000000" points="968.8809,-122 851.1191,-122 851.1191,-86 968.8809,-86 968.8809,-122"/>
<text text-anchor="middle" x="910" y="-99.8" font-family="Times,serif" font-size="14.00" fill="#000000">NotifyComponent</text>
</g>
<!-- NotifyComponent&#45;&gt;AppModule -->
<g id="edge7" class="edge">
<title>NotifyComponent&#45;&gt;AppModule</title>
<path fill="none" stroke="#000000" d="M910,-122.1061C910,-122.1061 910,-140.991 910,-140.991"/>
<polygon fill="#000000" stroke="#000000" points="906.5001,-140.9909 910,-150.991 913.5001,-140.991 906.5001,-140.9909"/>
</g>
<!-- PaysComponent -->
<g id="node8" class="node">
<title>PaysComponent</title>
<polygon fill="#ffffb3" stroke="#000000" points="832.7744,-122 725.2256,-122 725.2256,-86 832.7744,-86 832.7744,-122"/>
<text text-anchor="middle" x="779" y="-99.8" font-family="Times,serif" font-size="14.00" fill="#000000">PaysComponent</text>
</g>
<!-- PaysComponent&#45;&gt;AppModule -->
<g id="edge8" class="edge">
<title>PaysComponent&#45;&gt;AppModule</title>
<path fill="none" stroke="#000000" d="M779,-122.2396C779,-137.5706 779,-157 779,-157 779,-157 858.1906,-157 858.1906,-157"/>
<polygon fill="#000000" stroke="#000000" points="858.1906,-160.5001 868.1906,-157 858.1906,-153.5001 858.1906,-160.5001"/>
</g>
<!-- ProfileComponent -->
<g id="node9" class="node">
<title>ProfileComponent</title>
<polygon fill="#ffffb3" stroke="#000000" points="706.9328,-122 587.0672,-122 587.0672,-86 706.9328,-86 706.9328,-122"/>
<text text-anchor="middle" x="647" y="-99.8" font-family="Times,serif" font-size="14.00" fill="#000000">ProfileComponent</text>
</g>
<!-- ProfileComponent&#45;&gt;AppModule -->
<g id="edge9" class="edge">
<title>ProfileComponent&#45;&gt;AppModule</title>
<path fill="none" stroke="#000000" d="M647,-122.0336C647,-139.0597 647,-162 647,-162 647,-162 858.3269,-162 858.3269,-162"/>
<polygon fill="#000000" stroke="#000000" points="858.3269,-165.5001 868.3269,-162 858.3268,-158.5001 858.3269,-165.5001"/>
</g>
<!-- AuthModule -->
<g id="node11" class="node">
<title>AuthModule</title>
<polygon fill="#8dd3c7" stroke="#000000" points="562.5482,-122 559.5482,-126 538.5482,-126 535.5482,-122 475.4518,-122 475.4518,-86 562.5482,-86 562.5482,-122"/>
<text text-anchor="middle" x="519" y="-99.8" font-family="Times,serif" font-size="14.00" fill="#000000">AuthModule</text>
</g>
<!-- AuthModule&#45;&gt;AppModule -->
<g id="edge10" class="edge">
<title>AuthModule&#45;&gt;AppModule</title>
<path fill="none" stroke="#000000" d="M519,-122.2222C519,-140.8285 519,-167 519,-167 519,-167 858.1562,-167 858.1562,-167"/>
<polygon fill="#000000" stroke="#000000" points="858.1562,-170.5001 868.1562,-167 858.1561,-163.5001 858.1562,-170.5001"/>
</g>
<!-- AnswersService -->
<g id="node12" class="node">
<title>AnswersService</title>
<ellipse fill="#fdb462" stroke="#000000" cx="377" cy="-104" rx="73.5522" ry="18"/>
<text text-anchor="middle" x="377" y="-99.8" font-family="Times,serif" font-size="14.00" fill="#000000">AnswersService</text>
</g>
<!-- AnswersService&#45;&gt;AppModule -->
<g id="edge11" class="edge">
<title>AnswersService&#45;&gt;AppModule</title>
<path fill="none" stroke="#000000" d="M377,-122.2228C377,-142.3652 377,-172 377,-172 377,-172 858.1764,-172 858.1764,-172"/>
<polygon fill="#000000" stroke="#000000" points="858.1764,-175.5001 868.1764,-172 858.1763,-168.5001 858.1764,-175.5001"/>
</g>
<!-- PostsService -->
<g id="node13" class="node">
<title>PostsService</title>
<ellipse fill="#fdb462" stroke="#000000" cx="225" cy="-104" rx="60.2672" ry="18"/>
<text text-anchor="middle" x="225" y="-99.8" font-family="Times,serif" font-size="14.00" fill="#000000">PostsService</text>
</g>
<!-- PostsService&#45;&gt;AppModule -->
<g id="edge12" class="edge">
<title>PostsService&#45;&gt;AppModule</title>
<path fill="none" stroke="#000000" d="M225,-122.0449C225,-143.6623 225,-177 225,-177 225,-177 858.1813,-177 858.1813,-177"/>
<polygon fill="#000000" stroke="#000000" points="858.1814,-180.5001 868.1813,-177 858.1813,-173.5001 858.1814,-180.5001"/>
</g>
<!-- RatesService -->
<g id="node14" class="node">
<title>RatesService</title>
<ellipse fill="#fdb462" stroke="#000000" cx="85" cy="-104" rx="61.3896" ry="18"/>
<text text-anchor="middle" x="85" y="-99.8" font-family="Times,serif" font-size="14.00" fill="#000000">RatesService</text>
</g>
<!-- RatesService&#45;&gt;AppModule -->
<g id="edge13" class="edge">
<title>RatesService&#45;&gt;AppModule</title>
<path fill="none" stroke="#000000" d="M85,-122.0908C85,-145.1328 85,-182 85,-182 85,-182 858.2388,-182 858.2388,-182"/>
<polygon fill="#000000" stroke="#000000" points="858.2388,-185.5001 868.2388,-182 858.2387,-178.5001 858.2388,-185.5001"/>
</g>
</g>
</svg>
