<?xml version="1.0" encoding="UTF-8" standalone="no"?>
<!DOCTYPE svg PUBLIC "-//W3C//DTD SVG 1.1//EN"
 "http://www.w3.org/Graphics/SVG/1.1/DTD/svg11.dtd">
<!-- Generated by graphviz version 2.40.1 (20161225.0304)
 -->
<!-- Title: dependencies Pages: 1 -->
<svg width="1993pt" height="284pt"
 viewBox="0.00 0.00 1993.00 284.00" xmlns="http://www.w3.org/2000/svg" xmlns:xlink="http://www.w3.org/1999/xlink">
<g id="graph0" class="graph" transform="scale(1 1) rotate(0) translate(4 280)">
<title>dependencies</title>
<polygon fill="#ffffff" stroke="transparent" points="-4,4 -4,-280 1989,-280 1989,4 -4,4"/>
<text text-anchor="start" x="971.5091" y="-42.4" font-family="sans-serif" font-weight="bold" font-size="14.00" fill="#000000">Legend</text>
<polygon fill="#ffffb3" stroke="transparent" points="758.5,-10 758.5,-30 778.5,-30 778.5,-10 758.5,-10"/>
<text text-anchor="start" x="782.129" y="-15.4" font-family="sans-serif" font-size="14.00" fill="#000000"> &#160;Declarations</text>
<polygon fill="#8dd3c7" stroke="transparent" points="871.5,-10 871.5,-30 891.5,-30 891.5,-10 871.5,-10"/>
<text text-anchor="start" x="895.2251" y="-15.4" font-family="sans-serif" font-size="14.00" fill="#000000"> &#160;Module</text>
<polygon fill="#80b1d3" stroke="transparent" points="957.5,-10 957.5,-30 977.5,-30 977.5,-10 957.5,-10"/>
<text text-anchor="start" x="981.2812" y="-15.4" font-family="sans-serif" font-size="14.00" fill="#000000"> &#160;Bootstrap</text>
<polygon fill="#fdb462" stroke="transparent" points="1054.5,-10 1054.5,-30 1074.5,-30 1074.5,-10 1054.5,-10"/>
<text text-anchor="start" x="1078.1732" y="-15.4" font-family="sans-serif" font-size="14.00" fill="#000000"> &#160;Providers</text>
<polygon fill="#fb8072" stroke="transparent" points="1150.5,-10 1150.5,-30 1170.5,-30 1170.5,-10 1150.5,-10"/>
<text text-anchor="start" x="1174.2258" y="-15.4" font-family="sans-serif" font-size="14.00" fill="#000000"> &#160;Exports</text>
<g id="clust1" class="cluster">
<title>cluster_AppModule</title>
<polygon fill="none" stroke="#000000" stroke-dasharray="1,5" points="8,-70 8,-268 1977,-268 1977,-70 8,-70"/>
</g>
<g id="clust2" class="cluster">
<title>cluster_AppModule_declarations</title>
<polygon fill="none" stroke="#000000" points="579,-78 579,-130 1969,-130 1969,-78 579,-78"/>
</g>
<g id="clust13" class="cluster">
<title>cluster_AppModule_imports</title>
<polygon fill="none" stroke="#000000" points="467,-78 467,-130 571,-130 571,-78 467,-78"/>
</g>
<g id="clust15" class="cluster">
<title>cluster_AppModule_bootstrap</title>
<polygon fill="none" stroke="#000000" points="917,-208 917,-260 1041,-260 1041,-208 917,-208"/>
</g>
<g id="clust16" class="cluster">
<title>cluster_AppModule_providers</title>
<polygon fill="none" stroke="#000000" points="16,-78 16,-130 459,-130 459,-78 16,-78"/>
</g>
<!-- AnswersComponent -->
<g id="node1" class="node">
<title>AnswersComponent</title>
<polygon fill="#ffffb3" stroke="#000000" points="1961.3104,-122 1830.6896,-122 1830.6896,-86 1961.3104,-86 1961.3104,-122"/>
<text text-anchor="middle" x="1896" y="-99.8" font-family="Times,serif" font-size="14.00" fill="#000000">AnswersComponent</text>
</g>
<!-- AppModule -->
<g id="node11" class="node">
<title>AppModule</title>
<polygon fill="#8dd3c7" stroke="#000000" points="1020.6571,-187 1017.6571,-191 996.6571,-191 993.6571,-187 937.3429,-187 937.3429,-151 1020.6571,-151 1020.6571,-187"/>
<text text-anchor="middle" x="979" y="-164.8" font-family="Times,serif" font-size="14.00" fill="#000000">AppModule</text>
</g>
<!-- AnswersComponent&#45;&gt;AppModule -->
<g id="edge1" class="edge">
<title>AnswersComponent&#45;&gt;AppModule</title>
<path fill="none" stroke="#000000" d="M1896,-122.0908C1896,-145.1328 1896,-182 1896,-182 1896,-182 1030.7844,-182 1030.7844,-182"/>
<polygon fill="#000000" stroke="#000000" points="1030.7845,-178.5001 1020.7844,-182 1030.7844,-185.5001 1030.7845,-178.5001"/>
</g>
<!-- AppComponent -->
<g id="node2" class="node">
<title>AppComponent</title>
<polygon fill="#ffffb3" stroke="#000000" points="1812.9399,-122 1707.0601,-122 1707.0601,-86 1812.9399,-86 1812.9399,-122"/>
<text text-anchor="middle" x="1760" y="-99.8" font-family="Times,serif" font-size="14.00" fill="#000000">AppComponent</text>
</g>
<!-- AppComponent&#45;&gt;AppModule -->
<g id="edge2" class="edge">
<title>AppComponent&#45;&gt;AppModule</title>
<path fill="none" stroke="#000000" d="M1760,-122.0449C1760,-143.6623 1760,-177 1760,-177 1760,-177 1030.7138,-177 1030.7138,-177"/>
<polygon fill="#000000" stroke="#000000" points="1030.7139,-173.5001 1020.7138,-177 1030.7138,-180.5001 1030.7139,-173.5001"/>
</g>
<!-- DashboardComponent -->
<g id="node3" class="node">
<title>DashboardComponent</title>
<polygon fill="#ffffb3" stroke="#000000" points="1688.9734,-122 1547.0266,-122 1547.0266,-86 1688.9734,-86 1688.9734,-122"/>
<text text-anchor="middle" x="1618" y="-99.8" font-family="Times,serif" font-size="14.00" fill="#000000">DashboardComponent</text>
</g>
<!-- DashboardComponent&#45;&gt;AppModule -->
<g id="edge3" class="edge">
<title>DashboardComponent&#45;&gt;AppModule</title>
<path fill="none" stroke="#000000" d="M1618,-122.2228C1618,-142.3652 1618,-172 1618,-172 1618,-172 1030.9266,-172 1030.9266,-172"/>
<polygon fill="#000000" stroke="#000000" points="1030.9266,-168.5001 1020.9266,-172 1030.9265,-175.5001 1030.9266,-168.5001"/>
</g>
<!-- DiscoverComponent -->
<g id="node4" class="node">
<title>DiscoverComponent</title>
<polygon fill="#ffffb3" stroke="#000000" points="1528.8641,-122 1397.1359,-122 1397.1359,-86 1528.8641,-86 1528.8641,-122"/>
<text text-anchor="middle" x="1463" y="-99.8" font-family="Times,serif" font-size="14.00" fill="#000000">DiscoverComponent</text>
</g>
<!-- DiscoverComponent&#45;&gt;AppModule -->
<g id="edge4" class="edge">
<title>DiscoverComponent&#45;&gt;AppModule</title>
<path fill="none" stroke="#000000" d="M1463,-122.2222C1463,-140.8285 1463,-167 1463,-167 1463,-167 1030.6845,-167 1030.6845,-167"/>
<polygon fill="#000000" stroke="#000000" points="1030.6845,-163.5001 1020.6845,-167 1030.6844,-170.5001 1030.6845,-163.5001"/>
</g>
<!-- FooterComponent -->
<g id="node5" class="node">
<title>FooterComponent</title>
<polygon fill="#ffffb3" stroke="#000000" points="1378.8809,-122 1261.1191,-122 1261.1191,-86 1378.8809,-86 1378.8809,-122"/>
<text text-anchor="middle" x="1320" y="-99.8" font-family="Times,serif" font-size="14.00" fill="#000000">FooterComponent</text>
</g>
<!-- FooterComponent&#45;&gt;AppModule -->
<g id="edge5" class="edge">
<title>FooterComponent&#45;&gt;AppModule</title>
<path fill="none" stroke="#000000" d="M1320,-122.0336C1320,-139.0597 1320,-162 1320,-162 1320,-162 1030.8133,-162 1030.8133,-162"/>
<polygon fill="#000000" stroke="#000000" points="1030.8133,-158.5001 1020.8133,-162 1030.8133,-165.5001 1030.8133,-158.5001"/>
</g>
<!-- HomeComponent -->
<g id="node6" class="node">
<title>HomeComponent</title>
<polygon fill="#ffffb3" stroke="#000000" points="1242.5451,-122 1127.4549,-122 1127.4549,-86 1242.5451,-86 1242.5451,-122"/>
<text text-anchor="middle" x="1185" y="-99.8" font-family="Times,serif" font-size="14.00" fill="#000000">HomeComponent</text>
</g>
<!-- HomeComponent&#45;&gt;AppModule -->
<g id="edge6" class="edge">
<title>HomeComponent&#45;&gt;AppModule</title>
<path fill="none" stroke="#000000" d="M1185,-122.2396C1185,-137.5706 1185,-157 1185,-157 1185,-157 1030.6872,-157 1030.6872,-157"/>
<polygon fill="#000000" stroke="#000000" points="1030.6872,-153.5001 1020.6872,-157 1030.6871,-160.5001 1030.6872,-153.5001"/>
</g>
<!-- NavbarComponent -->
<g id="node7" class="node">
<title>NavbarComponent</title>
<polygon fill="#ffffb3" stroke="#000000" points="1109.0297,-122 986.9703,-122 986.9703,-86 1109.0297,-86 1109.0297,-122"/>
<text text-anchor="middle" x="1048" y="-99.8" font-family="Times,serif" font-size="14.00" fill="#000000">NavbarComponent</text>
</g>
<!-- NavbarComponent&#45;&gt;AppModule -->
<g id="edge7" class="edge">
<title>NavbarComponent&#45;&gt;AppModule</title>
<path fill="none" stroke="#000000" d="M1003.7819,-122.1061C1003.7819,-122.1061 1003.7819,-140.991 1003.7819,-140.991"/>
<polygon fill="#000000" stroke="#000000" points="1000.282,-140.9909 1003.7819,-150.991 1007.282,-140.991 1000.282,-140.9909"/>
</g>
<!-- NotifyComponent -->
<g id="node8" class="node">
<title>NotifyComponent</title>
<polygon fill="#ffffb3" stroke="#000000" points="968.8809,-122 851.1191,-122 851.1191,-86 968.8809,-86 968.8809,-122"/>
<text text-anchor="middle" x="910" y="-99.8" font-family="Times,serif" font-size="14.00" fill="#000000">NotifyComponent</text>
</g>
<!-- NotifyComponent&#45;&gt;AppModule -->
<g id="edge8" class="edge">
<title>NotifyComponent&#45;&gt;AppModule</title>
<path fill="none" stroke="#000000" d="M953.0561,-122.1061C953.0561,-122.1061 953.0561,-140.991 953.0561,-140.991"/>
<polygon fill="#000000" stroke="#000000" points="949.5562,-140.9909 953.0561,-150.991 956.5562,-140.991 949.5562,-140.9909"/>
</g>
<!-- PaysComponent -->
<g id="node9" class="node">
<title>PaysComponent</title>
<polygon fill="#ffffb3" stroke="#000000" points="832.7744,-122 725.2256,-122 725.2256,-86 832.7744,-86 832.7744,-122"/>
<text text-anchor="middle" x="779" y="-99.8" font-family="Times,serif" font-size="14.00" fill="#000000">PaysComponent</text>
</g>
<!-- PaysComponent&#45;&gt;AppModule -->
<g id="edge9" class="edge">
<title>PaysComponent&#45;&gt;AppModule</title>
<path fill="none" stroke="#000000" d="M779,-122.2396C779,-137.5706 779,-157 779,-157 779,-157 927.0734,-157 927.0734,-157"/>
<polygon fill="#000000" stroke="#000000" points="927.0735,-160.5001 937.0734,-157 927.0734,-153.5001 927.0735,-160.5001"/>
</g>
<!-- ProfileComponent -->
<g id="node10" class="node">
<title>ProfileComponent</title>
<polygon fill="#ffffb3" stroke="#000000" points="706.9328,-122 587.0672,-122 587.0672,-86 706.9328,-86 706.9328,-122"/>
<text text-anchor="middle" x="647" y="-99.8" font-family="Times,serif" font-size="14.00" fill="#000000">ProfileComponent</text>
</g>
<!-- ProfileComponent&#45;&gt;AppModule -->
<g id="edge10" class="edge">
<title>ProfileComponent&#45;&gt;AppModule</title>
<path fill="none" stroke="#000000" d="M647,-122.0336C647,-139.0597 647,-162 647,-162 647,-162 927.2881,-162 927.2881,-162"/>
<polygon fill="#000000" stroke="#000000" points="927.2882,-165.5001 937.2881,-162 927.2881,-158.5001 927.2882,-165.5001"/>
</g>
<!-- AppComponent  -->
<g id="node13" class="node">
<title>AppComponent </title>
<polygon fill="#80b1d3" stroke="#000000" points="1033.439,-252 924.561,-252 924.561,-216 1033.439,-216 1033.439,-252"/>
<text text-anchor="middle" x="979" y="-229.8" font-family="Times,serif" font-size="14.00" fill="#000000">AppComponent </text>
</g>
<!-- AppModule&#45;&gt;AppComponent  -->
<g id="edge12" class="edge">
<title>AppModule&#45;&gt;AppComponent </title>
<path fill="none" stroke="#000000" stroke-dasharray="1,5" d="M979,-187.1061C979,-187.1061 979,-205.991 979,-205.991"/>
<polygon fill="#000000" stroke="#000000" points="975.5001,-205.9909 979,-215.991 982.5001,-205.991 975.5001,-205.9909"/>
</g>
<!-- AuthModule -->
<g id="node12" class="node">
<title>AuthModule</title>
<polygon fill="#8dd3c7" stroke="#000000" points="562.5482,-122 559.5482,-126 538.5482,-126 535.5482,-122 475.4518,-122 475.4518,-86 562.5482,-86 562.5482,-122"/>
<text text-anchor="middle" x="519" y="-99.8" font-family="Times,serif" font-size="14.00" fill="#000000">AuthModule</text>
</g>
<!-- AuthModule&#45;&gt;AppModule -->
<g id="edge11" class="edge">
<title>AuthModule&#45;&gt;AppModule</title>
<path fill="none" stroke="#000000" d="M519,-122.2222C519,-140.8285 519,-167 519,-167 519,-167 926.9586,-167 926.9586,-167"/>
<polygon fill="#000000" stroke="#000000" points="926.9587,-170.5001 936.9586,-167 926.9586,-163.5001 926.9587,-170.5001"/>
</g>
<!-- AnswersService -->
<g id="node14" class="node">
<title>AnswersService</title>
<ellipse fill="#fdb462" stroke="#000000" cx="377" cy="-104" rx="73.5522" ry="18"/>
<text text-anchor="middle" x="377" y="-99.8" font-family="Times,serif" font-size="14.00" fill="#000000">AnswersService</text>
</g>
<!-- AnswersService&#45;&gt;AppModule -->
<g id="edge13" class="edge">
<title>AnswersService&#45;&gt;AppModule</title>
<path fill="none" stroke="#000000" d="M377,-122.2228C377,-142.3652 377,-172 377,-172 377,-172 927.1465,-172 927.1465,-172"/>
<polygon fill="#000000" stroke="#000000" points="927.1465,-175.5001 937.1465,-172 927.1464,-168.5001 927.1465,-175.5001"/>
</g>
<!-- PostsService -->
<g id="node15" class="node">
<title>PostsService</title>
<ellipse fill="#fdb462" stroke="#000000" cx="225" cy="-104" rx="60.2672" ry="18"/>
<text text-anchor="middle" x="225" y="-99.8" font-family="Times,serif" font-size="14.00" fill="#000000">PostsService</text>
</g>
<!-- PostsService&#45;&gt;AppModule -->
<g id="edge14" class="edge">
<title>PostsService&#45;&gt;AppModule</title>
<path fill="none" stroke="#000000" d="M225,-122.0449C225,-143.6623 225,-177 225,-177 225,-177 927.1172,-177 927.1172,-177"/>
<polygon fill="#000000" stroke="#000000" points="927.1173,-180.5001 937.1172,-177 927.1172,-173.5001 927.1173,-180.5001"/>
</g>
<!-- RatesService -->
<g id="node16" class="node">
<title>RatesService</title>
<ellipse fill="#fdb462" stroke="#000000" cx="85" cy="-104" rx="61.3896" ry="18"/>
<text text-anchor="middle" x="85" y="-99.8" font-family="Times,serif" font-size="14.00" fill="#000000">RatesService</text>
</g>
<!-- RatesService&#45;&gt;AppModule -->
<g id="edge15" class="edge">
<title>RatesService&#45;&gt;AppModule</title>
<path fill="none" stroke="#000000" d="M85,-122.0908C85,-145.1328 85,-182 85,-182 85,-182 927.0796,-182 927.0796,-182"/>
<polygon fill="#000000" stroke="#000000" points="927.0797,-185.5001 937.0796,-182 927.0796,-178.5001 927.0797,-185.5001"/>
</g>
</g>
</svg>
